<svg width="32" height="32" viewBox="0 0 32 32" fill="none" xmlns="http://www.w3.org/2000/svg">
  <path d="M16.0006 29.3334L15.2006 28.6667C14.8006 28.3334 14.8006 27.7334 15.2006 27.3334L15.8673 26.6667H16.1339L16.8006 27.3334C17.2006 27.7334 17.2006 28.3334 16.8006 28.6667L16.0006 29.3334Z" fill="#3B9EFF"/>
  <path d="M16.0007 2.66675C11.0674 2.66675 7.06738 6.66675 7.06738 11.6001C7.06738 16.5334 11.0674 20.5334 16.0007 20.5334C20.934 20.5334 24.934 16.5334 24.934 11.6001C24.934 6.66675 20.934 2.66675 16.0007 2.66675ZM16.0007 17.3334C12.8007 17.3334 10.2674 14.8001 10.2674 11.6001C10.2674 8.40008 12.8007 5.86675 16.0007 5.86675C19.2007 5.86675 21.734 8.40008 21.734 11.6001C21.734 14.8001 19.2007 17.3334 16.0007 17.3334Z" fill="#3B9EFF"/>
  <path d="M16.0003 23.7333C13.0669 23.7333 10.4003 22.8666 8.40026 21.3333C7.60026 20.8 7.46693 19.7333 8.13359 19.0666L9.00026 18.2C9.40026 17.8 10.0003 17.6666 10.5336 17.8666C12.2003 18.4666 14.0669 18.8 16.0003 18.8C17.9336 18.8 19.8003 18.4666 21.4669 17.8666C22.0003 17.6666 22.6003 17.8 23.0003 18.2L23.8669 19.0666C24.5336 19.7333 24.4003 20.8 23.6003 21.3333C21.6003 22.8666 18.9336 23.7333 16.0003 23.7333Z" fill="#8B6DFF"/>
</svg> 